<svg xmlns="http://www.w3.org/2000/svg" xmlns:xlink="http://www.w3.org/1999/xlink" viewBox="0 0 512 512" style="enable-background:new 0 0 512 512" xml:space="preserve"><g><g xmlns="http://www.w3.org/2000/svg" id="XMLID_678_"><path id="XMLID_695_" d="m484.6 169.5c-.6-.4-1.2-.7-1.8-.9h-.1l-224-80c-1.7-.6-3.6-.6-5.4 0l-224 80s-.1 0-.1.1c-.6.2-1.2.5-1.8.9-2.1 1.5-3.4 3.9-3.4 6.5v224c0 3.4 2.1 6.4 5.3 7.5l224 80c.1 0 .1 0 .2.1.1 0 .1 0 .2.1.3.1.7.2 1 .2h.1c.4.1.7.1 1.1.1.4 0 .8 0 1.1-.1h.1c.4-.1.7-.1 1-.2.1 0 .1 0 .2-.1.1 0 .1 0 .2-.1l224-80c3.2-1.1 5.3-4.2 5.3-7.5v-224.1c.2-2.6-1.1-5-3.2-6.5zm-228.6 78-50.9-18.2 200.2-71.5 50.9 18.2zm-82.7-12.5v70.3l-4.1-5.9c-1.2-1.7-3.1-2.9-5.2-3.3s-4.3.1-6 1.4l-12.1 8.6-14-20.1c-1.2-1.7-3.1-2.9-5.2-3.3-.5-.1-.9-.1-1.4-.1-1.7 0-3.3.5-4.6 1.5l-6 4.3v-74.4l29.3 10.5zm208.2-85.7-200.2 71.5-50.9-18.2 200.2-71.5zm-125.5-44.8 50.9 18.2-200.2 71.5-50.9-18.2zm-216 82.9 58.7 21v95.6c0 3 1.7 5.7 4.3 7.1 2.7 1.4 5.9 1.1 8.3-.6l12.1-8.6 14 20.1c1.2 1.7 3.1 2.9 5.2 3.3s4.3-.1 6-1.4l12.1-8.6 14 20.1c1.5 2.2 4 3.4 6.6 3.4.8 0 1.6-.1 2.4-.4 3.3-1 5.6-4.1 5.6-7.6v-90l58.7 21v1.5 205.6l-208-74.5zm432 207-208 74.3v-199.3-7.7l208-74.3z" fill="#ffffff" data-original="#000000" style=""/><path id="XMLID_701_" d="m304 397c.9 0 1.8-.2 2.7-.5l84-30c4.2-1.5 6.3-6.1 4.8-10.2-1.5-4.2-6.1-6.3-10.2-4.8l-84 30c-4.2 1.5-6.3 6.1-4.8 10.2 1.1 3.3 4.2 5.3 7.5 5.3z" fill="#ffffff" data-original="#000000" style=""/><path id="XMLID_702_" d="m304 429c.9 0 1.8-.2 2.7-.5l84-30c4.2-1.5 6.3-6.1 4.8-10.2-1.5-4.2-6.1-6.3-10.2-4.8l-84 30c-4.2 1.5-6.3 6.1-4.8 10.2 1.1 3.3 4.2 5.3 7.5 5.3z" fill="#ffffff" data-original="#000000" style=""/><path id="XMLID_703_" d="m404.5 278.7c1.1.6 2.3.8 3.5.8 3 0 5.8-1.6 7.2-4.5l8.8-17.9v49.6c0 4.4 3.6 8 8 8s8-3.6 8-8v-60.2l9.6 12.7c2.7 3.5 7.7 4.2 11.2 1.5s4.2-7.7 1.5-11.2l-24-31.6c-1.7-2.2-4.4-3.4-7.1-3.1-2.8.3-5.2 1.9-6.4 4.4l-24 48.8c-1.9 4-.3 8.7 3.7 10.7z" fill="#ffffff" data-original="#000000" style=""/></g></g></svg>
