<svg xmlns="http://www.w3.org/2000/svg" xmlns:xlink="http://www.w3.org/1999/xlink" xmlns:svgjs="http://svgjs.com/svgjs" viewBox="0 0 64 64" style="enable-background:new 0 0 512 512" xml:space="preserve" class=""><g><g xmlns="http://www.w3.org/2000/svg" id="Pallet"><path d="m59 55h-4a1 1 0 0 1 -1-1v-3h-19v3a1 1 0 0 1 -1 1h-4a1 1 0 0 1 -1-1v-3h-19v3a1 1 0 0 1 -1 1h-4a1 1 0 0 1 -1-1v-8a1 1 0 0 1 1-1h54a1 1 0 0 1 1 1v8a1 1 0 0 1 -1 1zm-3-2h2v-6h-52v6h2v-3a1 1 0 0 1 1-1h21a1 1 0 0 1 1 1v3h2v-3a1 1 0 0 1 1-1h21a1 1 0 0 1 1 1z" fill="#34495e"  data-original="#000000" style="" class=""/><path d="m32 47h-20a1 1 0 0 1 -1-1v-20a1 1 0 0 1 1-1h20a1 1 0 0 1 1 1v20a1 1 0 0 1 -1 1zm-19-2h18v-18h-18z" fill="#34495e"  data-original="#000000" style="" class=""/><path d="m24 33h-4a1 1 0 0 1 -1-1v-6a1 1 0 0 1 1-1h4a1 1 0 0 1 1 1v6a1 1 0 0 1 -1 1zm-3-2h2v-4h-2z" fill="#34495e"  data-original="#000000" style="" class=""/><path d="m28 43h-2a1 1 0 0 1 0-2h2a1 1 0 0 1 0 2z" fill="#34495e"  data-original="#000000" style="" class=""/><path d="m52 47h-20a1 1 0 0 1 -1-1v-20a1 1 0 0 1 1-1h20a1 1 0 0 1 1 1v20a1 1 0 0 1 -1 1zm-19-2h18v-18h-18z" fill="#34495e"  data-original="#000000" style="" class=""/><path d="m44 33h-4a1 1 0 0 1 -1-1v-6a1 1 0 0 1 1-1h4a1 1 0 0 1 1 1v6a1 1 0 0 1 -1 1zm-3-2h2v-4h-2z" fill="#34495e"  data-original="#000000" style="" class=""/><path d="m42 15h-4a1 1 0 0 1 -1-1v-4a1 1 0 0 1 1-1h4a1 1 0 0 1 1 1v4a1 1 0 0 1 -1 1zm-3-2h2v-2h-2z" fill="#34495e"  data-original="#000000" style="" class=""/><path d="m48 43h-2a1 1 0 0 1 0-2h2a1 1 0 0 1 0 2z" fill="#34495e"  data-original="#000000" style="" class=""/><path d="m44 23h-2a1 1 0 0 1 0-2h2a1 1 0 0 1 0 2z" fill="#34495e"  data-original="#000000" style="" class=""/><path d="m48 27h-16a1 1 0 0 1 -1-1v-16a1 1 0 0 1 1-1h16a1 1 0 0 1 1 1v16a1 1 0 0 1 -1 1zm-15-2h14v-14h-14z" fill="#34495e"  data-original="#000000" style="" class=""/></g></g></svg>
