<svg xmlns="http://www.w3.org/2000/svg" xmlns:xlink="http://www.w3.org/1999/xlink" xmlns:svgjs="http://svgjs.com/svgjs" viewBox="0 0 64 64" style="enable-background:new 0 0 512 512" xml:space="preserve"><g><path xmlns="http://www.w3.org/2000/svg" d="M58,35a3.0062,3.0062,0,0,0-2.8291,2H45V33h4.1709a3,3,0,1,0,0-2H45V27H55.1709a3,3,0,1,0,0-2H45V22a3.0008,3.0008,0,0,0-3-3H39V16.4141l3.707-3.7071A.9993.9993,0,0,0,43,12V8.8291a3,3,0,1,0-2,0v2.7568L37.293,15.293A.9993.9993,0,0,0,37,16v3H33V14.8291a3,3,0,1,0-2,0V19H27V16a.9993.9993,0,0,0-.293-.707L23,11.5859V8.8291a3,3,0,1,0-2,0V12a.9993.9993,0,0,0,.293.707L25,16.4141V19H22a3.0008,3.0008,0,0,0-3,3v3H8.8291a3,3,0,1,0,0,2H19v4H14.8291a3,3,0,1,0,0,2H19v4H8.8291a3,3,0,1,0,0,2H19v3a3.0008,3.0008,0,0,0,3,3h3v2.5859L21.293,51.293A.9993.9993,0,0,0,21,52v3.1709a3,3,0,1,0,2,0V52.4141l3.707-3.7071A.9993.9993,0,0,0,27,48V45h4v4.1709a3,3,0,1,0,2,0V45h4v3a.9993.9993,0,0,0,.293.707L41,52.4141v2.7568a3,3,0,1,0,2,0V52a.9993.9993,0,0,0-.293-.707L39,47.5859V45h3a3.0008,3.0008,0,0,0,3-3V39H55.1709A3,3,0,1,0,58,35Zm-6-4a1,1,0,1,1-1,1A1.0006,1.0006,0,0,1,52,31Zm6-6a1,1,0,1,1-1,1A1.0006,1.0006,0,0,1,58,25ZM42,5a1,1,0,1,1-1,1A1.0006,1.0006,0,0,1,42,5ZM32,11a1,1,0,1,1-1,1A1.0006,1.0006,0,0,1,32,11ZM22,7a1,1,0,1,1,1-1A1.0006,1.0006,0,0,1,22,7ZM6,27a1,1,0,1,1,1-1A1.0006,1.0006,0,0,1,6,27Zm6,6a1,1,0,1,1,1-1A1.0006,1.0006,0,0,1,12,33ZM6,39a1,1,0,1,1,1-1A1.0006,1.0006,0,0,1,6,39ZM22,59a1,1,0,1,1,1-1A1.0006,1.0006,0,0,1,22,59Zm10-6a1,1,0,1,1,1-1A1.0006,1.0006,0,0,1,32,53Zm10,4a1,1,0,1,1-1,1A1.0006,1.0006,0,0,1,42,57Zm1-15a1,1,0,0,1-1,1H22a1,1,0,0,1-1-1V22a1,1,0,0,1,1-1H42a1,1,0,0,1,1,1Zm15-3a1,1,0,1,1,1-1A1.0006,1.0006,0,0,1,58,39Z" fill="#ffffff" data-original="#000000" style=""/></g></svg>
