<svg xmlns="http://www.w3.org/2000/svg" xmlns:xlink="http://www.w3.org/1999/xlink" viewBox="0 0 512 512"><g><path xmlns="http://www.w3.org/2000/svg" id="XMLID_1_" d="m116.5 89.9c0-4.4 3.6-8 8-8h230.4c4.4 0 8 3.6 8 8s-3.6 8-8 8h-230.4c-4.4 0-8-3.6-8-8zm8 67.4h230.4c4.4 0 8-3.6 8-8s-3.6-8-8-8h-230.4c-4.4 0-8 3.6-8 8s3.6 8 8 8zm0 59.4h230.4c4.4 0 8-3.6 8-8s-3.6-8-8-8h-230.4c-4.4 0-8 3.6-8 8s3.6 8 8 8zm175.9 59.4c4.4 0 8-3.6 8-8s-3.6-8-8-8h-175.9c-4.4 0-8 3.6-8 8s3.6 8 8 8zm155.8-26.6-26.7 26.7v126.5c0 2.5-1.2 4.8-3 6.3l-99.6 99.5c-1.4 2.1-3.9 3.5-6.6 3.5h-.1-.1-262.3c-4.4 0-8-3.6-8-8v-496c0-4.4 3.6-8 8-8h363.7c4.4 0 8 3.6 8 8v194.8c7.7-.3 16.2 3 22.9 9.7 11.3 11.2 13 27.8 3.8 37zm-33.8 11.2-18.2-18.2-148.1 148.1 1.9 16.3 16.3 1.9 141.6-141.6zm-20.2 150h-73.9v73.8zm11.4-118.6-130.7 130.7c-1.5 1.5-3.5 2.3-5.7 2.3-.3 0-.6 0-.9-.1l-26.4-3s0 0-.1 0h-.1l-48.7-.3c-2.8 0-5.5-1.5-6.9-4l-10.9-18.9-23.2 20.5c-1.7 1.5-4 2.2-6.3 1.9s-4.3-1.6-5.6-3.5l-24.9-37.3c-2.4-3.7-1.5-8.6 2.2-11.1 3.7-2.4 8.6-1.5 11.1 2.2l19.8 29.7 23.6-20.9c1.8-1.6 4.2-2.3 6.6-1.9s4.4 1.8 5.6 3.9l13.5 23.5 36.2.2-2-17.4c-.3-2.4.6-4.8 2.3-6.6l171.5-171.4v-194.6h-347.8v480h246.5v-93.3c0-4.4 3.6-8 8-8h93.3zm27.5-68.3c-5.2-5.2-11.9-6.3-14.3-3.8l-11.2 11.2 18.2 18.2 11.2-11.2c2.4-2.5 1.3-9.3-3.9-14.4zm-73.8 62.6-18 17.9c-3.1 3.1-3.1 8.2 0 11.3 1.6 1.6 3.6 2.3 5.7 2.3 2 0 4.1-.8 5.6-2.3l18-17.9c3.1-3.1 3.1-8.2 0-11.3s-8.2-3.1-11.3 0z" fill="#ffffff" data-original="#000000" style="" class=""/></g></svg>
