<svg xmlns="http://www.w3.org/2000/svg" xmlns:xlink="http://www.w3.org/1999/xlink" viewBox="0 0 32 32" style="enable-background:new 0 0 512 512" xml:space="preserve" class=""><g><g xmlns="http://www.w3.org/2000/svg" id="Layer_2" data-name="Layer 2"><path d="M24.78,5.5H22.5V4a.5.5,0,0,0-1,0V5.5h-5V4a.5.5,0,0,0-1,0V5.5h-5V4a.5.5,0,0,0-1,0V5.5H7.22A2.72,2.72,0,0,0,4.5,8.22V25.78A2.72,2.72,0,0,0,7.22,28.5H17a.5.5,0,0,0,0-1H7.22A1.72,1.72,0,0,1,5.5,25.78V8.22A1.72,1.72,0,0,1,7.22,6.5H9.5V8a.5.5,0,0,0,1,0V6.5h5V8a.5.5,0,0,0,1,0V6.5h5V8a.5.5,0,0,0,1,0V6.5h2.28A1.72,1.72,0,0,1,26.5,8.22V19a.5.5,0,0,0,1,0V8.22A2.72,2.72,0,0,0,24.78,5.5Z" fill="#ffffff" data-original="#000000" style="" class=""/><path d="M11.5,12a.5.5,0,0,0-.5-.5H9a.5.5,0,0,0-.5.5v2a.5.5,0,0,0,.5.5h2a.5.5,0,0,0,.5-.5Zm-1,1.5h-1v-1h1Z" fill="#ffffff" data-original="#000000" style="" class=""/><path d="M17,11.5H15a.5.5,0,0,0-.5.5v2a.5.5,0,0,0,.5.5h2a.5.5,0,0,0,.5-.5V12A.5.5,0,0,0,17,11.5Zm-.5,2h-1v-1h1Z" fill="#ffffff" data-original="#000000" style="" class=""/><path d="M21,14.5h2a.5.5,0,0,0,.5-.5V12a.5.5,0,0,0-.5-.5H21a.5.5,0,0,0-.5.5v2A.5.5,0,0,0,21,14.5Zm.5-2h1v1h-1Z" fill="#ffffff" data-original="#000000" style="" class=""/><path d="M11.5,17a.5.5,0,0,0-.5-.5H9a.5.5,0,0,0-.5.5v2a.5.5,0,0,0,.5.5h2a.5.5,0,0,0,.5-.5Zm-1,1.5h-1v-1h1Z" fill="#ffffff" data-original="#000000" style="" class=""/><path d="M17,16.5H15a.5.5,0,0,0-.5.5v2a.5.5,0,0,0,.5.5h2a.5.5,0,0,0,.5-.5V17A.5.5,0,0,0,17,16.5Zm-.5,2h-1v-1h1Z" fill="#ffffff" data-original="#000000" style="" class=""/><path d="M20.5,19a.5.5,0,0,0,.5.5h2a.5.5,0,0,0,.5-.5V17a.5.5,0,0,0-.5-.5H21a.5.5,0,0,0-.5.5Zm1-1.5h1v1h-1Z" fill="#ffffff" data-original="#000000" style="" class=""/><path d="M11,21.5H9a.5.5,0,0,0-.5.5v2a.5.5,0,0,0,.5.5h2a.5.5,0,0,0,.5-.5V22A.5.5,0,0,0,11,21.5Zm-.5,2h-1v-1h1Z" fill="#ffffff" data-original="#000000" style="" class=""/><path d="M17,21.5H15a.5.5,0,0,0-.5.5v2a.5.5,0,0,0,.5.5h2a.5.5,0,0,0,.5-.5V22A.5.5,0,0,0,17,21.5Zm-.5,2h-1v-1h1Z" fill="#ffffff" data-original="#000000" style="" class=""/><path d="M23.5,20.49a4,4,0,1,0,4,4A4,4,0,0,0,23.5,20.49Zm0,7a3,3,0,1,1,3-3A3,3,0,0,1,23.5,27.5Z" fill="#ffffff" data-original="#000000" style="" class=""/><path d="M24,24.29V22.62a.5.5,0,0,0-.5-.5.5.5,0,0,0-.5.5V24.5a.5.5,0,0,0,.14.35l.85.85a.51.51,0,0,0,.36.15.49.49,0,0,0,.35-.15.5.5,0,0,0,0-.71Z" fill="#ffffff" data-original="#000000" style="" class=""/></g></g></svg>
