<svg xmlns="http://www.w3.org/2000/svg" xmlns:xlink="http://www.w3.org/1999/xlink" xmlns:svgjs="http://svgjs.com/svgjs" viewBox="0 0 64 64" style="enable-background:new 0 0 512 512" xml:space="preserve" class=""><g><path xmlns="http://www.w3.org/2000/svg" d="M59.33,30.33H57V26.67A7.679,7.679,0,0,0,49.33,19H49V14.673A7.682,7.682,0,0,0,41.327,7H10a7.009,7.009,0,0,0-7,6.819c0,.061.005.121.005.181H3V49.33A7.679,7.679,0,0,0,10.67,57H49.33A7.679,7.679,0,0,0,57,49.33V45.67h2.33A1.672,1.672,0,0,0,61,44V32A1.672,1.672,0,0,0,59.33,30.33ZM6.47,10.464A4.93,4.93,0,0,1,10,9H41.327A5.68,5.68,0,0,1,47,14.673V19H10.252a5.39,5.39,0,0,1-3.835-1.631,4.924,4.924,0,0,1-1.33-2.508c-.02-.114-.023-.234-.035-.351A4.552,4.552,0,0,1,5,13.87,4.947,4.947,0,0,1,6.47,10.464ZM55,49.33A5.676,5.676,0,0,1,49.33,55H10.67A5.676,5.676,0,0,1,5,49.33V18.9A6.98,6.98,0,0,0,10,21H49.33A5.676,5.676,0,0,1,55,26.67v3.66H46.67c-.255,0-.509.013-.759.037a7.661,7.661,0,0,0-4.665,2.2l0,0a7.675,7.675,0,0,0,5.427,13.1H55Zm4-5.66H46.67A5.676,5.676,0,0,1,41,38a5.748,5.748,0,0,1,.109-1.117,5.615,5.615,0,0,1,1.547-2.894A5.717,5.717,0,0,1,44.5,32.758c.133-.055.276-.08.413-.124a5.537,5.537,0,0,1,.643-.2,5.715,5.715,0,0,1,1.113-.109H59Z" fill="#ffffff" data-original="#000000" style="" class=""/><path xmlns="http://www.w3.org/2000/svg" d="M47,34a4,4,0,1,0,4,4A4,4,0,0,0,47,34Zm0,6a2,2,0,1,1,2-2A2,2,0,0,1,47,40Z" fill="#ffffff" data-original="#000000" style="" class=""/></g></svg>
