<svg xmlns="http://www.w3.org/2000/svg" xmlns:xlink="http://www.w3.org/1999/xlink" xmlns:svgjs="http://svgjs.com/svgjs" viewBox="0 0 66 66" style="enable-background:new 0 0 512 512" xml:space="preserve" class=""><g><g xmlns="http://www.w3.org/2000/svg"><path d="m33 19.93c-3.89 0-7.05 3.16-7.05 7.05 0 3.79 2.96 9.4 7.05 9.4s7.05-5.62 7.05-9.4c0-3.88-3.16-7.05-7.05-7.05zm0 14.46c-2.5 0-5.05-4.31-5.05-7.4 0-2.78 2.27-5.05 5.05-5.05s5.05 2.27 5.05 5.05c0 3.09-2.54 7.4-5.05 7.4z" fill="#34495e"  data-original="#000000" style="" class=""/><path d="m33 42.04-2.82-5.39h-2.63c-3.99 0-7.23 3.24-7.23 7.23v9.07h25.38v-9.07c0-3.99-3.25-7.23-7.24-7.23h-2.63zm5.45-3.4c2.89 0 5.24 2.35 5.24 5.23v7.07h-21.37v-7.07c0-2.89 2.35-5.23 5.23-5.23h1.42l3.09 5.91.26.58 1.41-.03.23-.58 3.08-5.87h1.41z" fill="#34495e"  data-original="#000000" style="" class=""/><path d="m52.31 29.51c4.09 0 7.05-5.62 7.05-9.4 0-3.89-3.16-7.05-7.05-7.05s-7.05 3.16-7.05 7.05c0 3.78 2.96 9.4 7.05 9.4zm0-14.46c2.78 0 5.05 2.27 5.05 5.05 0 3.1-2.54 7.4-5.05 7.4s-5.05-4.31-5.05-7.4c0-2.78 2.27-5.05 5.05-5.05z" fill="#34495e"  data-original="#000000" style="" class=""/><path d="m57.76 29.76h-2.63l-2.82 5.4-2.82-5.4h-2.63c-3.11 0-5.86 1.97-6.84 4.91l1.9.63c.71-2.12 2.69-3.55 4.94-3.55h1.41l3.09 5.91c.18.36.54.58.94.58l.66-.03 3.38-6.46h1.41c2.89 0 5.24 2.35 5.24 5.23v7.07h-15.3v2h17.31v-9.07c0-3.98-3.25-7.22-7.24-7.22z" fill="#34495e"  data-original="#000000" style="" class=""/><path d="m6.64 20.1c0 3.79 2.96 9.4 7.05 9.4s7.05-5.62 7.05-9.4c0-3.89-3.16-7.05-7.05-7.05s-7.05 3.17-7.05 7.05zm12.1 0c0 3.1-2.54 7.4-5.05 7.4s-5.05-4.31-5.05-7.4c0-2.78 2.27-5.05 5.05-5.05s5.05 2.27 5.05 5.05z" fill="#34495e"  data-original="#000000" style="" class=""/><path d="m18.32 44.06h-15.32v-7.07c0-2.88 2.35-5.23 5.24-5.23h1.41l3.09 5.91c.18.36.54.58.94.58l.66-.03 3.38-6.46h1.41c2.25 0 4.24 1.43 4.95 3.55l1.9-.64c-.99-2.94-3.74-4.91-6.85-4.91h-2.63l-2.82 5.4-2.82-5.4h-2.62c-3.99 0-7.24 3.24-7.24 7.23v9.07h17.32z" fill="#34495e"  data-original="#000000" style="" class=""/></g></g></svg>
