<svg xmlns="http://www.w3.org/2000/svg" xmlns:xlink="http://www.w3.org/1999/xlink" xmlns:svgjs="http://svgjs.com/svgjs" viewBox="0 0 68 68" style="enable-background:new 0 0 512 512" xml:space="preserve" class=""><g><g xmlns="http://www.w3.org/2000/svg"><g><g><path d="m11.1 25.7-1.4 1.9c-.3.4-.3 1 .1 1.3l2 2c.4.4.9.4 1.3.1l1.9-1.4c.8.5 1.7.9 2.7 1.1l.3 2.3c.1.5.5.9 1 .9h2.8c.5 0 .9-.4 1-.9l.3-2.3c.9-.2 1.9-.6 2.7-1.1l1.8 1.4c.2.1.4.2.6.2.3 0 .6-.1.7-.3l2-2c.4-.4.4-.9.1-1.3l-1.4-1.9c.5-.9.9-1.8 1.1-2.7l2.3-.3c.5-.1.9-.5.9-1v-2.9c0-.5-.4-.9-.9-1l-2.3-.3c-.2-1-.6-1.9-1.1-2.7l1.4-1.8c.3-.4.3-1-.1-1.4l-2-2c-.4-.4-.9-.4-1.3-.1l-1.9 1.4c-.8-.5-1.7-.9-2.7-1.1l-.3-2.3c-.1-.5-.5-.9-1-.9h-2.8c-.5 0-.9.4-1 .9l-.3 2.3c-.9.2-1.9.6-2.7 1.1l-1.9-1.4c-.4-.3-1-.3-1.3.1l-2 2c-.4.4-.4.9-.1 1.3l1.4 1.9c-.5.9-.9 1.8-1.1 2.7l-2.3.3c-.5.1-.9.5-.9 1v2.9c0 .5.4.9.9 1l2.4.3c.2.9.6 1.8 1.1 2.7zm-2.3-6 2.1-.3c.4-.1.8-.4.8-.8.2-1.2.7-2.3 1.4-3.3.2-.4.2-.8 0-1.2l-1.3-1.7.8-.8 1.7 1.3c.3.3.9.3 1.2 0 1-.7 2.1-1.1 3.2-1.3.4-.1.7-.4.8-.9l.3-2.2h1.1l.3 2.2c.1.4.4.8.8.9 1.2.2 2.3.7 3.3 1.4.4.2.8.2 1.2 0l1.7-1.3.8.8-1.3 1.7c-.3.3-.3.8 0 1.2.7 1 1.1 2.1 1.4 3.3.1.4.4.7.8.8l2.1.3v1.1l-2.1.3c-.4.1-.8.4-.8.8-.2 1.2-.7 2.3-1.4 3.3-.2.4-.2.8 0 1.2l1.3 1.7-.8.8-1.7-1.3c-.3-.3-.8-.3-1.2 0-1 .7-2.1 1.1-3.3 1.4-.4.1-.7.4-.8.9l-.3 2.2h-1.1l-.3-2.2c-.1-.4-.4-.8-.8-.9-1.2-.2-2.3-.7-3.3-1.4-.4-.2-.8-.2-1.2 0l-1.7 1.3-.8-.8 1.3-1.7c.3-.3.3-.9 0-1.2-.7-1-1.1-2.1-1.3-3.3-.1-.4-.4-.7-.8-.8l-2.1-.3z" fill="#ffffff" data-original="#000000" style="" class=""/></g></g><g><g><path d="m20.4 26.3c3.3 0 6-2.7 6-6.1s-2.7-6.1-6-6.1-6 2.7-6 6.1 2.6 6.1 6 6.1zm0-10.1c2.2 0 4 1.8 4 4.1 0 2.2-1.8 4.1-4 4.1s-4-1.8-4-4.1c-.1-2.3 1.7-4.1 4-4.1z" fill="#ffffff" data-original="#000000" style="" class=""/></g></g><g><g><path d="m65.2 21.4c-1.9-1.7-4.7-1.7-6.7 0v-.9c0-.2-.1-.5-.3-.7l-17.6-18.5c-.2-.2-.5-.3-.7-.3h-37.9c-.6 0-1 .4-1 1v64c0 .6.4 1 1 1h55.5c.6 0 1-.4 1-1v-28.9l7.2-8.5c1.9-2.1 1.7-5.3-.5-7.2zm-24.1 33.1-4.8-4.1 19.1-22.4 4.8 4.1zm-5.8-2.4 4.2 3.6-7.6 4.7zm5.6-47.6 14.3 15h-14.3zm15.6 60.5h-53.5v-62h35.8v17.5c0 .6.4 1 1 1h16.7v2.1l-22.3 26.2s-.2.3-.2.3l-5.2 12.4c-.2.4-.1.9.3 1.1.3.3.8.3 1.2.1l11.4-7s.2-.2.2-.2l14.6-17zm7.7-37.6-2.7 3.1-4.8-4.1 2.7-3.2c1.1-1.3 3.1-1.4 4.4-.3 1.4 1.2 1.6 3.2.4 4.5z" fill="#ffffff" data-original="#000000" style="" class=""/></g></g><g><g><path d="m29.8 39.1h-20.4c-.6 0-1 .4-1 1s.4 1 1 1h20.3c.6 0 1-.4 1-1s-.4-1-.9-1z" fill="#ffffff" data-original="#000000" style="" class=""/></g></g><g><g><path d="m29.3 46.8c0-.6-.4-1-1-1h-18.9c-.6 0-1 .4-1 1s.4 1 1 1h18.8c.6 0 1.1-.4 1.1-1z" fill="#ffffff" data-original="#000000" style="" class=""/></g></g><g><g><path d="m25.4 52.6h-16c-.6 0-1 .4-1 1s.4 1 1 1h15.9c.6 0 1-.4 1-1s-.4-1-.9-1z" fill="#ffffff" data-original="#000000" style="" class=""/></g></g></g></g></svg>
