<svg xmlns="http://www.w3.org/2000/svg" xmlns:xlink="http://www.w3.org/1999/xlink" xmlns:svgjs="http://svgjs.com/svgjs" viewBox="0 0 32 32" style="enable-background:new 0 0 512 512" xml:space="preserve"><g><g xmlns="http://www.w3.org/2000/svg" id="Layer_46" data-name="Layer 46"><path d="m2.29 17.21a1 1 0 0 1 0-1.42l13-13a1 1 0 0 1 1.42 0l13 13a1 1 0 0 1 0 1.42 1 1 0 0 1 -1.42 0l-12.29-12.3-12.29 12.3a1 1 0 0 1 -1.42 0zm14.42-2.42a1 1 0 0 0 -1.42 0l-13 13a1 1 0 0 0 1.42 1.42l12.29-12.3 12.29 12.3a1 1 0 0 0 1.42 0 1 1 0 0 0 0-1.42z" fill="#ffffff" data-original="#000000" style=""/></g></g></svg>
