<svg xmlns="http://www.w3.org/2000/svg" viewBox="0 0 837.41 347.37"><path d="M712,345.23H664.33V466.1H630.28V345.23H582.83V317.14H712Z" transform="translate(-211.23 -219.28)" fill="#36363a"/><path d="M744.34,317.14H864.57v27.45h-86v30.65h41.28q27,0,41.18,11.27t14.15,32.56q0,22.35-15.75,34.69T815,466.1H744.34Zm68.73,123.43q13.2,0,20.22-5.22t7-15.21q0-19.58-27.24-19.58H778.6v40Z" transform="translate(-211.23 -219.28)" fill="#36363a"/><path d="M1048.64,317.14v149h-34.48V405H946.5V466.1H912v-149H946.5v58.74h67.66V317.14Z" transform="translate(-211.23 -219.28)" fill="#36363a"/><polygon points="50.12 170.53 68.77 159.51 31.48 137.99 31.48 278.01 0 259.83 0 83.97 130.87 159.94 80.52 189.46 80.75 270.71 99.12 281.71 99 200.16 100.14 199.38 128.1 183.24 150.02 195.89 149.63 232.01 130.53 220.99 130.71 337.15 49.31 288.9 48.99 171.3 50.12 170.53" fill="#34495e"/><polygon points="19.64 75.28 169.65 161.89 201.13 143.72 82.55 75.25 100.63 64.81 219.21 133.27 250.68 115.1 100.67 28.49 19.64 75.28" fill="#dd3939"/><polygon points="150.01 0 118.55 18.18 268.56 104.79 300.03 86.61 150.01 0" fill="#dd3939"/><polygon points="201.13 143.72 169.65 161.89 169.65 184.55 150.02 195.89 149.63 232.01 150.02 232.24 151.16 231.59 201.13 202.73 201.13 143.72" fill="#7492af"/><polygon points="300.03 86.61 268.56 104.79 268.56 241.65 179.78 292.91 179.74 272.31 250.69 231.34 250.68 115.1 219.21 133.27 219.21 213.16 148.21 254.16 148.41 347.37 300.04 259.83 300.03 86.61" fill="#7492af"/></svg>