<svg width="307" height="127" viewBox="0 0 307 127" fill="none" xmlns="http://www.w3.org/2000/svg">
<g clip-path="url(#clip0)">
<path d="M183.586 46.0479H166.109V90.2385H153.626V46.0479H136.231V35.778H183.586V46.0479Z" fill="white"/>
<path d="M195.442 35.778H239.519V45.8139H207.991V57.0197H223.124C229.723 57.0197 234.755 58.3931 238.221 61.14C241.687 63.8869 243.416 67.855 243.408 73.0441C243.408 78.4916 241.484 82.7192 237.634 85.7269C233.785 88.7346 228.356 90.2385 221.346 90.2385H195.442V35.778ZM220.639 80.9046C223.865 80.9046 226.336 80.2684 228.051 78.9961C229.767 77.7238 230.622 75.8702 230.618 73.4353C230.618 68.6629 227.289 66.2768 220.631 66.2768H208.002V80.9009L220.639 80.9046Z" fill="white"/>
<path d="M307 35.7781V90.2531H294.359V67.9001H269.555V90.2385H256.907V35.7634H269.555V57.239H294.359V35.7781H307Z" fill="white"/>
<path d="M18.3743 62.3465L25.2115 58.3176L11.5408 50.4497V101.642L0 94.995V30.6998L47.9778 58.4748L29.5192 69.2674L29.6035 98.9728L36.338 102.994L36.294 73.1794L36.712 72.8942L46.9623 66.9933L54.9983 71.6182L54.8553 84.8239L47.8532 80.7949L47.9191 123.264L18.0774 105.623L17.9601 62.628L18.3743 62.3465Z" fill="white"/>
<path d="M7.20014 27.5227L62.1948 59.1877L73.7356 52.5447L30.2634 27.5117L36.8916 23.6948L80.3638 48.7241L91.9009 42.0811L36.9063 10.4161L7.20014 27.5227Z" fill="white"/>
<path d="M54.9947 0L43.4612 6.64669L98.4559 38.3117L109.993 31.665L54.9947 0Z" fill="white"/>
<path d="M73.7356 52.5447L62.1948 59.1877V67.4723L54.9983 71.6182L54.8553 84.8239L54.9983 84.908L55.4163 84.6703L73.7356 74.119V52.5447Z" fill="white"/>
<path d="M109.993 31.665L98.4559 38.3117V88.3483L65.9085 107.089L65.8939 99.5577L91.9046 84.5789L91.9009 42.0811L80.3638 48.7241V77.9322L54.3348 92.922L54.4081 127L109.997 94.995L109.993 31.665Z" fill="white"/>
</g>
<defs>
<clipPath id="clip0">
<rect width="307" height="127" fill="white"/>
</clipPath>
</defs>
</svg>
