<svg height="512" viewBox="0 0 64 64" width="512" xmlns="http://www.w3.org/2000/svg"><g id="Shoping_cart" data-name="Shoping cart"><circle cx="25.797" cy="54" r="2"/><circle cx="46.001" cy="54" r="2"/><path d="m56.00128 53h-4.09033a5.99242 5.99242 0 0 0 -11.81934 0h-8.38476a5.99242 5.99242 0 0 0 -11.81934 0h-2.38623a3.5 3.5 0 0 1 0-7h38.5a1.00068 1.00068 0 0 0 .98242-.811l5-26a.96488.96488 0 0 0 -.98242-1.189h-47v-6a.99974.99974 0 0 0 -1-1h-3.042v-1a.99974.99974 0 0 0 -1-1h-5.958a.99974.99974 0 0 0 -1 1v4a.99974.99974 0 0 0 1 1h5.958a.99974.99974 0 0 0 1-1v-1h2.042v6c0 .20588 4.79852 25.04987 4.79852 25.04987a5.49737 5.49737 0 0 0 .70148 10.95013h2.38623a5.99242 5.99242 0 0 0 11.81934 0h8.38477a5.99242 5.99242 0 0 0 11.81934 0h4.09033a1 1 0 0 0 0-2zm-48.04199-40h-3.958v-2h3.958zm51.83105 7-4.61523 24h-36.34766l-4.61523-24zm-33.99316 38a4 4 0 1 1 4-4 4.00427 4.00427 0 0 1 -4 4zm20.2041 0a4 4 0 1 1 4-4 4.00427 4.00427 0 0 1 -4 4z"/><path d="m35.00128 42h4a.99974.99974 0 0 0 1-1v-18a.99974.99974 0 0 0 -1-1h-4a.99974.99974 0 0 0 -1 1v18a.99974.99974 0 0 0 1 1zm1-18h2v16h-2z"/><path d="m45.06378 42h4a.99974.99974 0 0 0 1-1v-18a.99974.99974 0 0 0 -1-1h-4a.99974.99974 0 0 0 -1 1v18a.99974.99974 0 0 0 1 1zm1-18h2v16h-2z"/><path d="m25.06378 42h4a.99974.99974 0 0 0 1-1v-18a.99974.99974 0 0 0 -1-1h-4a.99974.99974 0 0 0 -1 1v18a.99974.99974 0 0 0 1 1zm1-18h2v16h-2z"/><path d="m43.03253 16h-8a.99974.99974 0 0 1 -1-1v-10a.99974.99974 0 0 1 1-1h8a.99974.99974 0 0 1 1 1v10a.99974.99974 0 0 1 -1 1zm-7-2h6v-8h-6z"/><path d="m55.06378 16h-8a.99974.99974 0 0 1 -1-1v-8a.99974.99974 0 0 1 1-1h8a.99974.99974 0 0 1 1 1v8a.99974.99974 0 0 1 -1 1zm-7-2h6v-6h-6z"/><path d="m31.06378 16h-10a.99974.99974 0 0 1 -1-1 6 6 0 0 1 12 0 .99974.99974 0 0 1 -1 1zm-8.873-2h7.74609a4.00008 4.00008 0 0 0 -7.74609 0z"/></g></svg>