<svg xmlns="http://www.w3.org/2000/svg" xmlns:xlink="http://www.w3.org/1999/xlink" viewBox="0 0 512 512"><g><path xmlns="http://www.w3.org/2000/svg" d="m98.346 115.069c-16.713 0-30.31 13.597-30.31 30.31s13.597 30.31 30.31 30.31 30.311-13.597 30.311-30.31-13.598-30.31-30.311-30.31zm0 44.62c-7.891 0-14.31-6.419-14.31-14.31 0-7.89 6.419-14.31 14.31-14.31s14.311 6.419 14.311 14.31c-.001 7.891-6.421 14.31-14.311 14.31zm112.464-14.31c0-16.713-13.597-30.31-30.31-30.31s-30.31 13.597-30.31 30.31 13.597 30.31 30.31 30.31 30.31-13.597 30.31-30.31zm-44.62 0c0-7.89 6.419-14.31 14.31-14.31s14.31 6.419 14.31 14.31-6.419 14.31-14.31 14.31-14.31-6.419-14.31-14.31zm96.464 30.31c16.713 0 30.31-13.597 30.31-30.31s-13.597-30.31-30.31-30.31-30.31 13.597-30.31 30.31 13.597 30.31 30.31 30.31zm0-44.62c7.891 0 14.31 6.419 14.31 14.31s-6.419 14.31-14.31 14.31-14.31-6.419-14.31-14.31c.001-7.89 6.42-14.31 14.31-14.31zm202.1 89.24c-28.26-24.883-66.171-40.994-107.357-45.758 2.38-9.493 3.603-19.253 3.603-29.171 0-39.182-19.015-75.903-53.54-103.4-33.991-27.071-79.08-41.98-126.96-41.98s-92.969 14.909-126.96 41.979c-34.525 27.497-53.54 64.219-53.54 103.4 0 35.873 16.193 70.089 45.688 96.729v88.833c0 2.858 1.524 5.499 4 6.928 1.237.714 2.619 1.072 4 1.072s2.763-.357 4-1.072l86.658-50.032c3.41.557 6.845 1.026 10.294 1.425-2.41 9.559-3.641 19.35-3.641 29.176 0 39.182 19.015 75.903 53.54 103.4 33.991 27.071 79.08 41.979 126.96 41.979 12.144 0 24.29-.982 36.153-2.921l86.658 50.032c1.237.714 2.619 1.072 4 1.072s2.763-.357 4-1.072c2.476-1.429 4-4.07 4-6.928v-88.833c29.497-26.64 45.69-60.856 45.69-96.729 0-36.454-16.779-71.304-47.246-98.129zm-320.512 51.281c-1.855-.331-3.765.007-5.396.949l-77.157 44.546v-78.585c0-2.326-1.012-4.536-2.772-6.056-27.676-23.887-42.917-54.808-42.917-87.065 0-71.339 73.794-129.379 164.5-129.379s164.5 58.04 164.5 129.379-73.794 129.379-164.5 129.379c-12.2.001-24.398-1.066-36.258-3.168zm308.842 133.912c-1.761 1.52-2.772 3.73-2.772 6.056v78.585l-77.157-44.546c-1.633-.942-3.543-1.28-5.396-.949-11.859 2.103-24.058 3.169-36.258 3.169-90.706 0-164.5-58.04-164.5-129.379 0-9.408 1.309-18.78 3.859-27.89 3.21.137 6.425.211 9.641.211 47.88 0 92.969-14.909 126.96-41.979 20.933-16.671 36.151-36.737 44.899-58.682 82.103 8.165 143.64 62.918 143.64 128.34 0 32.257-15.241 63.177-42.916 87.064zm-39.43-117.374c-16.713 0-30.311 13.597-30.311 30.31s13.598 30.31 30.311 30.31 30.31-13.597 30.31-30.31-13.597-30.31-30.31-30.31zm0 44.62c-7.891 0-14.311-6.419-14.311-14.31 0-7.89 6.42-14.31 14.311-14.31s14.31 6.419 14.31 14.31c0 7.89-6.419 14.31-14.31 14.31zm-82.154-44.62c-16.713 0-30.31 13.597-30.31 30.31s13.597 30.31 30.31 30.31 30.31-13.597 30.31-30.31-13.597-30.31-30.31-30.31zm0 44.62c-7.891 0-14.31-6.419-14.31-14.31 0-7.89 6.419-14.31 14.31-14.31s14.31 6.419 14.31 14.31c0 7.89-6.419 14.31-14.31 14.31zm-82.154-44.62c-16.713 0-30.31 13.597-30.31 30.31s13.597 30.31 30.31 30.31 30.31-13.597 30.31-30.31-13.597-30.31-30.31-30.31zm0 44.62c-7.891 0-14.31-6.419-14.31-14.31 0-7.89 6.419-14.31 14.31-14.31s14.31 6.419 14.31 14.31c-.001 7.89-6.42 14.31-14.31 14.31z" fill="#ffffff" data-original="#000000" style=""/></g></svg>
