<svg xmlns="http://www.w3.org/2000/svg" xmlns:xlink="http://www.w3.org/1999/xlink" viewBox="0 0 512 512">
    <g>
      <g>
        <path fill="#34495e" d="M506.877,214.711L452,166.693V76c0-8.284-6.716-15-15-15H330.278L265.97,3.792c-5.653-5.029-14.168-5.06-19.859-0.071
              L180.784,61H75c-8.284,0-15,6.716-15,15v90.694L5.123,214.711C1.923,217.512,0,221.758,0,226v241c0,24.798,20.207,45,45,45h422
              c24.79,0,45-20.198,45-45V226C512,221.625,510.006,217.452,506.877,214.711z M452,206.556l23.056,20.174L452,249.786V206.556z
               M255.928,35.012L285.141,61h-58.852L255.928,35.012z M90,91h332v188.787L340.787,361H171.213L90,279.787V91z M60,206.556v43.23
              L36.944,226.73L60,206.556z M30,466.903v-204.69c5.754,5.754,107.562,107.562,116.504,116.504L30,466.903z M59.763,482
              c127.158-96.251,118.895-89.916,120.003-91h152.468c1.11,1.086-7.183-5.272,120.003,91H59.763z M482,466.903l-116.504-88.186
              c9.291-9.29,110.943-110.943,116.504-116.504V466.903z" />
      </g>

      <g>
        <path fill="#34495e"
          d="M377,121h-61c-8.284,0-15,6.716-15,15s6.716,15,15,15h61c8.284,0,15-6.716,15-15S385.284,121,377,121z" />

        <path fill="#34495e"
          d="M377,181H135c-8.284,0-15,6.716-15,15s6.716,15,15,15h242c8.284,0,15-6.716,15-15S385.284,181,377,181z" />

        <path fill="#34495e" d="M377,241H135c-8.284,0-15,6.716-15,15c0,8.284,6.716,15,15,15h242c8.284,0,15-6.716,15-15
              C392,247.716,385.284,241,377,241z" />

        <path fill="#34495e"
          d="M316,301H195c-8.284,0-15,6.716-15,15s6.716,15,15,15h121c8.284,0,15-6.716,15-15S324.284,301,316,301z" />
      </g>
    </g>
  </svg>