<svg xmlns="http://www.w3.org/2000/svg" xmlns:xlink="http://www.w3.org/1999/xlink" viewBox="0 0 64 64" style="enable-background:new 0 0 512 512" xml:space="preserve" class=""><g><title xmlns="http://www.w3.org/2000/svg">1</title><g xmlns="http://www.w3.org/2000/svg" id="Layer_2" data-name="Layer 2"><path d="M60.77,35.362l-6.63-8A1,1,0,0,0,53.37,27H40.11a1.019,1.019,0,0,0-.11.022V16a1,1,0,0,0-1-1H4a1,1,0,0,0-1,1V52a1,1,0,0,0,1,1H8.025a7.491,7.491,0,0,0,14.95,0h19.05a7.491,7.491,0,0,0,14.95,0H60a1,1,0,0,0,1-1V36A1,1,0,0,0,60.77,35.362Zm-1.77,1V39H49V29h3.9ZM21.883,33H5V28H21.883a1,1,0,0,0,1-1V24.194l7.776,6.761-7.776,6.008V34A1,1,0,0,0,21.883,33ZM5,35H20.883v4a1,1,0,0,0,1.611.792l10.353-8a1,1,0,0,0,.045-1.547l-10.353-9A1,1,0,0,0,20.883,22v4H5V17H38V51H22.842A7.489,7.489,0,0,0,8.163,51H5ZM15.5,58A5.506,5.506,0,0,1,10,52.5c0-.142.008-.275.017-.426a5.5,5.5,0,0,1,10.966.01c.009.141.017.274.017.416A5.506,5.506,0,0,1,15.5,58Zm34,0A5.506,5.506,0,0,1,44,52.5c0-.142.008-.275.017-.426a5.5,5.5,0,0,1,10.966.01c.009.141.017.274.017.416A5.506,5.506,0,0,1,49.5,58Zm7.342-7a7.489,7.489,0,0,0-14.679,0H40V28.978a1.019,1.019,0,0,0,.11.022H47V40a1,1,0,0,0,1,1H59V51Z" fill="#ffffff" data-original="#000000" style=""/></g></g></svg>
