<svg xmlns="http://www.w3.org/2000/svg" xmlns:xlink="http://www.w3.org/1999/xlink" viewBox="0 0 24 24" style="enable-background:new 0 0 512 512" xml:space="preserve" class=""><g><path xmlns="http://www.w3.org/2000/svg" d="m16.424 1.5h-8.848a2.579 2.579 0 0 0 -2.576 2.576v15.848a2.579 2.579 0 0 0 2.576 2.576h8.848a2.579 2.579 0 0 0 2.576-2.576v-15.848a2.579 2.579 0 0 0 -2.576-2.576zm1.576 18.424a1.578 1.578 0 0 1 -1.576 1.576h-8.848a1.578 1.578 0 0 1 -1.576-1.576v-15.848a1.578 1.578 0 0 1 1.576-1.576h8.848a1.578 1.578 0 0 1 1.576 1.576z" fill="#ffffff" data-original="#000000" style="" class=""/><path xmlns="http://www.w3.org/2000/svg" d="m14 3.5h-4a.5.5 0 0 0 0 1h4a.5.5 0 0 0 0-1z" fill="#ffffff" data-original="#000000" style="" class=""/><path xmlns="http://www.w3.org/2000/svg" d="m12 17.5a1.5 1.5 0 1 0 1.5 1.5 1.5 1.5 0 0 0 -1.5-1.5zm0 2a.5.5 0 1 1 .5-.5.5.5 0 0 1 -.5.5z" fill="#ffffff" data-original="#000000" style="" class=""/></g></svg>
