<svg xmlns="http://www.w3.org/2000/svg" xmlns:xlink="http://www.w3.org/1999/xlink" xmlns:svgjs="http://svgjs.com/svgjs" viewBox="0 0 50 50" style="enable-background:new 0 0 512 512" xml:space="preserve" class=""><g><g xmlns="http://www.w3.org/2000/svg"><path d="m10.1 19.2h.6c-.1.2-.2.4-.3.6l-5.2 1.2c-.5.1-.8.5-.8 1v6.2c0 .5.3.9.8 1l5.3 1.2c.1.4.3.8.5 1.2l-2.8 4.6c-.2.4-.2.9.1 1.2l4.4 4.4c.3.3.8.4 1.2.1l4.6-2.8c.4.2.8.3 1.2.5l1.2 5.2c.1.5.5.8 1 .8h6.2c.5 0 .9-.3 1-.8l1.3-5.3c.2-.1.3-.1.5-.2v.6c0 2.5.9 4.8 2.7 6.5 1.7 1.7 4 2.7 6.4 2.7 1 0 2-.2 3-.5.3-.1.6-.4.7-.7s0-.7-.3-.9l-4-4 3.6-3.6 3.8 3.8c.2.2.6.3.9.3.3-.1.6-.3.7-.7 1.1-3.3.3-6.9-2.2-9.4-1.7-1.7-4-2.7-6.5-2.7-.2 0-.4 0-.5 0 .1-.2.2-.4.2-.6l5.2-1.2c.5-.1.8-.5.8-1v-6.2c0-.5-.3-.9-.8-1l-5.3-1.2c-.2-.4-.3-.8-.5-1.2l2.8-4.5c.2-.4.2-.9-.1-1.2l-4.4-4.4c-.3-.3-.8-.4-1.2-.1l-4.6 2.8c-.4-.2-.8-.3-1.2-.5l-1.1-5.2c-.1-.5-.5-.8-1-.8h-6.2c-.5 0-.9.3-1 .8l-1.3 5.3c-.2.1-.3.1-.5.2 0-.2 0-.4 0-.5 0-2.4-.9-4.7-2.7-6.5-2.5-2.5-6-3.3-9.3-2.2-.2.1-.4.4-.5.7s0 .7.3.9l3.8 3.9-3.6 3.6-3.9-3.8c-.2-.3-.6-.4-.9-.3s-.6.3-.7.6c-1.1 3.3-.3 6.9 2.2 9.4 1.7 1.7 4 2.7 6.4 2.7zm19.1 18.6c-.1 0-.3.1-.4.2s-.2.3-.3.5l-1.2 5h-4.6l-1.2-5c-.1-.3-.3-.6-.7-.7-.7-.2-1.3-.5-2-.8-.3-.2-.7-.1-1 0l-4.4 2.7-3.3-3.3 2.7-4.3c.2-.3.2-.7 0-1-.3-.7-.6-1.3-.8-1.9-.1-.3-.4-.6-.7-.7l-5-1.2v-4.7l5-1.2c.3-.1.6-.3.7-.7.1-.5.3-.9.5-1.4l3.1 3.1c-.8 3.2.1 6.7 2.5 9 1.8 1.8 4.2 2.8 6.7 2.8.8 0 1.6-.1 2.4-.3l3.1 3.1c-.2.5-.6.6-1.1.8zm-3.6-5.3c-2.2.2-4.3-.6-5.9-2.2s-2.3-3.7-2.2-5.9zm-4.8-20.3c.3-.1.6-.4.7-.7l1.2-5h4.6l1.2 5c.1.3.3.6.7.7.7.2 1.3.5 2 .8.3.2.7.1 1 0l4.4-2.7 3.3 3.3-2.9 4.2c-.2.3-.2.7 0 1 .3.6.6 1.2.8 1.9.1.3.4.6.7.7l5 1.2v4.6l-5 1.2c-.3.1-.6.3-.7.7-.2.5-.4 1-.5 1.4l-3.1-3.1c.8-3.2-.1-6.7-2.5-9.1s-5.8-3.3-9-2.5l-3.1-3.1c.3-.2.7-.4 1.2-.5zm11.7 13.4-8.1-8.1c2.2-.2 4.3.6 5.9 2.2s2.3 3.7 2.2 5.9zm-29.5-16.1 3.2 3.2c.4.4 1 .4 1.4 0l5-5c.4-.4.4-1 0-1.4l-3.1-3.3c2.1-.2 4.1.5 5.6 2.1 1.9 1.9 2.5 4.7 1.8 7-.1.4 0 .7.3 1l19.8 19.8c.2.2.6.4 1 .3s.9-.3 2-.3c1.9 0 3.7.7 5.1 2.1 1.5 1.5 2.2 3.5 2 5.6l-3.2-3.2c-.4-.4-1-.4-1.4 0l-5 5c-.4.4-.4 1 0 1.4l3.2 3.2c-2.1.2-4.1-.5-5.6-2.1-1.3-1.3-2.1-3.1-2.1-5.1 0-.7.1-1.3.3-2 .1-.4 0-.7-.2-1l-4.5-4.5c-2.7-2.7-11-11-15.3-15.3-.3-.3-.7-.4-1-.2-2.3.7-5.1.2-7-1.8-1.7-1.4-2.5-3.5-2.3-5.5z" fill="#ffffff" data-original="#000000" style=""/></g></g></svg>
